<?xml version="1.0" encoding="UTF-8" standalone="no"?>
<!-- Created with Inkscape (http://www.inkscape.org/) -->

<svg
   xmlns:dc="http://purl.org/dc/elements/1.1/"
   xmlns:cc="http://creativecommons.org/ns#"
   xmlns:rdf="http://www.w3.org/1999/02/22-rdf-syntax-ns#"
   xmlns:svg="http://www.w3.org/2000/svg"
   xmlns="http://www.w3.org/2000/svg"
   xmlns:sodipodi="http://sodipodi.sourceforge.net/DTD/sodipodi-0.dtd"
   xmlns:inkscape="http://www.inkscape.org/namespaces/inkscape"
   width="550"
   height="221"
   viewBox="0 0 145.52082 58.47292"
   version="1.1"
   id="svg8"
   inkscape:version="0.92.5 (2060ec1f9f, 2020-04-08)"
   sodipodi:docname="mcamc-bkg-large-2021.svg"
   inkscape:export-filename="D:\Downloads\mcamc-bkg-large.png"
   inkscape:export-xdpi="960"
   inkscape:export-ydpi="960">
  <defs
     id="defs2" />
  <sodipodi:namedview
     id="base"
     pagecolor="#000000"
     bordercolor="#666666"
     borderopacity="1.0"
     inkscape:pageopacity="0"
     inkscape:pageshadow="2"
     inkscape:zoom="1"
     inkscape:cx="150.3951"
     inkscape:cy="218.20412"
     inkscape:document-units="px"
     inkscape:current-layer="text6603"
     showgrid="true"
     units="px"
     inkscape:window-width="1920"
     inkscape:window-height="1017"
     inkscape:window-x="-8"
     inkscape:window-y="-8"
     inkscape:window-maximized="1"
     inkscape:pagecheckerboard="true">
    <inkscape:grid
       type="xygrid"
       id="grid3843"
       spacingx="1.3229167"
       spacingy="1.3229167"
       enabled="false" />
    <inkscape:grid
       type="axonomgrid"
       id="grid4654"
       units="mm"
       empspacing="6"
       spacingy="2.5"
       enabled="false" />
  </sodipodi:namedview>
  <metadata
     id="metadata5">
    <rdf:RDF>
      <cc:Work
         rdf:about="">
        <dc:format>image/svg+xml</dc:format>
        <dc:type
           rdf:resource="http://purl.org/dc/dcmitype/StillImage" />
        <dc:title></dc:title>
      </cc:Work>
    </rdf:RDF>
  </metadata>
  <g
     inkscape:label="Layer 1"
     inkscape:groupmode="layer"
     id="layer1"
     transform="translate(0,-238.52706)">
    <text
       xml:space="preserve"
       style="font-style:normal;font-weight:normal;font-size:10.58333302px;line-height:1.25;font-family:sans-serif;letter-spacing:0px;word-spacing:0px;fill:#000000;fill-opacity:1;stroke:none;stroke-width:0.26458332"
       x="66.937653"
       y="271.07483"
       id="text3841"><tspan
         sodipodi:role="line"
         id="tspan3839"
         x="66.937653"
         y="280.73032"
         style="stroke-width:0.26458332" /></text>
    <path
       style="fill:none;stroke:#ffffff;stroke-width:1.58749998;stroke-linecap:round;stroke-linejoin:round;stroke-miterlimit:4;stroke-dasharray:none;stroke-opacity:1"
       d="m 85.399683,279.0387 v -13.22917 l -5.291667,9.26042 -5.291665,-9.26042 1.44e-4,9.26042"
       id="path3845"
       inkscape:connector-curvature="0"
       sodipodi:nodetypes="ccccc"
       inkscape:export-filename="C:\Users\jason\OneDrive\2019-2020\mcamc\penguin.png"
       inkscape:export-xdpi="500"
       inkscape:export-ydpi="500" />
    <path
       style="fill:none;stroke:#f8ba05;stroke-width:1.58749998;stroke-linecap:round;stroke-linejoin:round;stroke-miterlimit:4;stroke-dasharray:none;stroke-opacity:1"
       d="m 140.9623,267.13245 c 0,0 -1.32291,-1.32292 -3.96875,-1.32292 -2.64583,0 -5.29166,2.64583 -5.29166,6.61459 0,1.42969 0.48081,2.57213 0.48081,2.57213"
       id="path3847-3"
       inkscape:connector-curvature="0"
       sodipodi:nodetypes="cssc"
       inkscape:export-filename="C:\Users\jason\OneDrive\2019-2020\mcamc\penguin.png"
       inkscape:export-xdpi="500"
       inkscape:export-ydpi="500" />
    <path
       style="fill:none;stroke:#ffffff;stroke-width:1.58749998;stroke-linecap:round;stroke-linejoin:round;stroke-miterlimit:4;stroke-dasharray:none;stroke-opacity:1"
       d="m 102.59761,279.0387 5.29168,-13.22917 5.29169,13.22917"
       id="path4738"
       inkscape:connector-curvature="0"
       inkscape:export-filename="C:\Users\jason\OneDrive\2019-2020\mcamc\penguin.png"
       inkscape:export-xdpi="500"
       inkscape:export-ydpi="500" />
    <path
       style="fill:none;stroke:#ffffff;stroke-width:1.58749998;stroke-linecap:round;stroke-linejoin:miter;stroke-miterlimit:4;stroke-dasharray:none;stroke-opacity:1"
       d="m 103.92053,276.39287 h 5.29169"
       id="path5285"
       inkscape:connector-curvature="0"
       inkscape:export-filename="C:\Users\jason\OneDrive\2019-2020\mcamc\penguin.png"
       inkscape:export-xdpi="500"
       inkscape:export-ydpi="500" />
    <path
       sodipodi:nodetypes="ccc"
       inkscape:connector-curvature="0"
       id="path6536"
       d="m 133.43914,277.30179 c 0,0 1.57676,1.73691 3.55441,1.73691 2.64584,0 3.96875,-1.32292 3.96875,-1.32292"
       style="fill:none;stroke:#f8ba05;stroke-width:1.58749998;stroke-linecap:round;stroke-linejoin:round;stroke-miterlimit:4;stroke-dasharray:none;stroke-opacity:1"
       inkscape:export-filename="C:\Users\jason\OneDrive\2019-2020\mcamc\penguin.png"
       inkscape:export-xdpi="500"
       inkscape:export-ydpi="500" />
    <path
       sodipodi:nodetypes="cssc"
       inkscape:connector-curvature="0"
       id="path6538"
       d="m 98.629037,267.13245 c 0,0 -1.32291,-1.32292 -3.968747,-1.32292 -2.64583,0 -5.29166,2.64583 -5.29166,6.61459 0,1.42969 0.48081,2.57213 0.48081,2.57213"
       style="fill:none;stroke:#ffffff;stroke-width:1.58749998;stroke-linecap:round;stroke-linejoin:round;stroke-miterlimit:4;stroke-dasharray:none;stroke-opacity:1"
       inkscape:export-filename="C:\Users\jason\OneDrive\2019-2020\mcamc\penguin.png"
       inkscape:export-xdpi="500"
       inkscape:export-ydpi="500" />
    <path
       style="fill:none;stroke:#ffffff;stroke-width:1.58749998;stroke-linecap:round;stroke-linejoin:round;stroke-miterlimit:4;stroke-dasharray:none;stroke-opacity:1"
       d="m 91.10588,277.30179 c 0,0 1.57676,1.73691 3.55441,1.73691 2.645837,0 3.968747,-1.32292 3.968747,-1.32292"
       id="path6540"
       inkscape:connector-curvature="0"
       sodipodi:nodetypes="ccc"
       inkscape:export-filename="C:\Users\jason\OneDrive\2019-2020\mcamc\penguin.png"
       inkscape:export-xdpi="500"
       inkscape:export-ydpi="500" />
    <path
       sodipodi:nodetypes="ccccc"
       inkscape:connector-curvature="0"
       id="path6542"
       d="m 127.73299,279.0387 v -13.22917 l -5.29167,9.26042 -5.29166,-9.26042 1.4e-4,9.26042"
       style="fill:none;stroke:#f8ba05;stroke-width:1.58749998;stroke-linecap:round;stroke-linejoin:round;stroke-miterlimit:4;stroke-dasharray:none;stroke-opacity:1"
       inkscape:export-filename="C:\Users\jason\OneDrive\2019-2020\mcamc\penguin.png"
       inkscape:export-xdpi="500"
       inkscape:export-ydpi="500" />
    <path
       sodipodi:nodetypes="cc"
       inkscape:connector-curvature="0"
       id="path6544"
       d="m 117.1498,277.71578 v 1.32292"
       style="fill:none;stroke:#f8ba05;stroke-width:1.58749998;stroke-linecap:round;stroke-linejoin:miter;stroke-miterlimit:4;stroke-dasharray:none;stroke-opacity:1"
       inkscape:export-filename="C:\Users\jason\OneDrive\2019-2020\mcamc\penguin.png"
       inkscape:export-xdpi="500"
       inkscape:export-ydpi="500" />
    <g
       aria-label="2019"
       style="font-style:normal;font-weight:normal;font-size:10.58333302px;line-height:1.25;font-family:sans-serif;letter-spacing:0px;word-spacing:0px;fill:#ffffff;fill-opacity:1;stroke:none;stroke-width:0.26458332"
       id="text6603"
       transform="translate(7.6692586,4.7625036)"
       inkscape:export-xdpi="500"
       inkscape:export-ydpi="500"
       inkscape:export-filename="C:\Users\jason\OneDrive\2019-2020\mcamc\penguin.png">
      <path
         d="m 88.095216,281.65367 c 0.02822,-0.61383 0.373945,-0.98072 0.924278,-0.98072 0.486833,0 0.8255,0.34572 0.8255,0.85372 0,0.41628 -0.119944,0.62089 -0.881944,1.48167 l -1.474611,1.67922 h 2.808111 v -0.47978 h -1.735667 l 1.171222,-1.3335 c 0.402167,-0.45861 0.627945,-0.93839 0.627945,-1.35466 0,-0.81139 -0.557389,-1.36878 -1.375834,-1.36878 -0.366888,0 -0.733777,0.15522 -0.987777,0.42333 -0.268111,0.27517 -0.388056,0.59972 -0.402167,1.0795 z"
         style="font-style:normal;font-variant:normal;font-weight:normal;font-stretch:normal;font-size:7.05555534px;font-family:'Tw Cen MT Std';-inkscape-font-specification:'Tw Cen MT Std';letter-spacing:3.92112494px;fill:#ffffff;fill-opacity:1;stroke-width:0.26458332"
         id="path5334"
         inkscape:connector-curvature="0" />
      <path
         d="m 96.754716,280.60592 c 0.585611,0 0.881945,0.62794 0.881945,1.8415 0,1.17122 -0.303389,1.79211 -0.896056,1.79211 -0.585611,0 -0.896056,-0.62795 -0.896056,-1.82034 0,-1.19239 0.310445,-1.81327 0.910167,-1.81327 z m 0.0071,-0.51506 h -0.02117 c -0.874889,0 -1.411111,0.86078 -1.411111,2.26483 0,1.55223 0.493889,2.39184 1.411111,2.39184 0.903111,0 1.418167,-0.81845 1.418167,-2.27895 0,-1.54516 -0.472723,-2.3495 -1.397,-2.37772 z"
         style="font-style:normal;font-variant:normal;font-weight:normal;font-stretch:normal;font-size:7.05555534px;font-family:'Tw Cen MT Std';-inkscape-font-specification:'Tw Cen MT Std';letter-spacing:3.92112494px;fill:#ffffff;fill-opacity:1;stroke-width:0.26458332"
         id="path5336"
         inkscape:connector-curvature="0" />
      <path
         d="m 103.73507,281.65367 c 0.0282,-0.61383 0.37394,-0.98072 0.92428,-0.98072 0.48683,0 0.8255,0.34572 0.8255,0.85372 0,0.41628 -0.11995,0.62089 -0.88195,1.48167 l -1.47461,1.67922 h 2.80811 v -0.47978 h -1.73567 l 1.17123,-1.3335 c 0.40216,-0.45861 0.62794,-0.93839 0.62794,-1.35466 0,-0.81139 -0.55739,-1.36878 -1.37583,-1.36878 -0.36689,0 -0.73378,0.15522 -0.98778,0.42333 -0.26811,0.27517 -0.38806,0.59972 -0.40217,1.0795 z"
         style="font-style:normal;font-variant:normal;font-weight:normal;font-stretch:normal;font-size:7.05555534px;line-height:1.25;font-family:'Tw Cen MT Std';-inkscape-font-specification:'Tw Cen MT Std';letter-spacing:3.92112494px;word-spacing:0px;fill:#ffffff;fill-opacity:1;stroke:none;stroke-width:0.26458332"
         id="path5334-0"
         inkscape:connector-curvature="0" />
      <path
         d="m 111.54066,280.09086 -0.23209,0.50908 h 0.79358 v 4.14759 h 0.52405 v -4.65667 z"
         style="font-style:normal;font-variant:normal;font-weight:normal;font-stretch:normal;font-size:7.05555534px;line-height:1.25;font-family:'Tw Cen MT Std';-inkscape-font-specification:'Tw Cen MT Std';letter-spacing:3.92112494px;word-spacing:0px;fill:#ffffff;fill-opacity:1;stroke:none;stroke-width:0.28074768"
         id="path5338"
         inkscape:connector-curvature="0" />
    </g>
    <g
       id="g6621"
       style="fill:#ff0707;fill-opacity:1"
       transform="matrix(0.09301812,0,0,0.09301812,5.0249652,240.13908)" />
    <g
       id="g6623"
       style="fill:#ff0707;fill-opacity:1"
       transform="matrix(0.09301812,0,0,0.09301812,5.0249652,240.13908)" />
    <g
       id="g6625"
       style="fill:#ff0707;fill-opacity:1"
       transform="matrix(0.09301812,0,0,0.09301812,5.0249652,240.13908)" />
    <g
       id="g6627"
       style="fill:#ff0707;fill-opacity:1"
       transform="matrix(0.09301812,0,0,0.09301812,5.0249652,240.13908)" />
    <g
       id="g6629"
       style="fill:#ff0707;fill-opacity:1"
       transform="matrix(0.09301812,0,0,0.09301812,5.0249652,240.13908)" />
    <g
       id="g6631"
       style="fill:#ff0707;fill-opacity:1"
       transform="matrix(0.09301812,0,0,0.09301812,5.0249652,240.13908)" />
    <g
       id="g6633"
       style="fill:#ff0707;fill-opacity:1"
       transform="matrix(0.09301812,0,0,0.09301812,5.0249652,240.13908)" />
    <g
       id="g6635"
       style="fill:#ff0707;fill-opacity:1"
       transform="matrix(0.09301812,0,0,0.09301812,5.0249652,240.13908)" />
    <g
       id="g6637"
       style="fill:#ff0707;fill-opacity:1"
       transform="matrix(0.09301812,0,0,0.09301812,5.0249652,240.13908)" />
    <g
       id="g6639"
       style="fill:#ff0707;fill-opacity:1"
       transform="matrix(0.09301812,0,0,0.09301812,5.0249652,240.13908)" />
    <g
       id="g6641"
       style="fill:#ff0707;fill-opacity:1"
       transform="matrix(0.09301812,0,0,0.09301812,5.0249652,240.13908)" />
    <g
       id="g6643"
       style="fill:#ff0707;fill-opacity:1"
       transform="matrix(0.09301812,0,0,0.09301812,5.0249652,240.13908)" />
    <g
       id="g6645"
       style="fill:#ff0707;fill-opacity:1"
       transform="matrix(0.09301812,0,0,0.09301812,5.0249652,240.13908)" />
    <g
       id="g6647"
       style="fill:#ff0707;fill-opacity:1"
       transform="matrix(0.09301812,0,0,0.09301812,5.0249652,240.13908)" />
    <g
       id="g6649"
       style="fill:#ff0707;fill-opacity:1"
       transform="matrix(0.09301812,0,0,0.09301812,5.0249652,240.13908)" />
    <g
       id="g5049"
       transform="matrix(0.82638847,0,0,0.82638847,0.59190194,49.600557)">
      <g
         inkscape:export-ydpi="500"
         inkscape:export-xdpi="500"
         inkscape:export-filename="C:\Users\jason\Downloads\epnguin.png"
         id="g838"
         transform="matrix(0.05319086,0,0,0.05319086,14.85991,242.64318)" />
      <g
         id="g952">
        <g
           id="g891"
           transform="matrix(0.05280404,0,0,0.05320386,14.3922,242.51614)">
          <g
             id="g918"
             transform="matrix(0.9559426,-0.05009883,0.05009883,0.9559426,-23.780395,24.305943)" />
        </g>
        <g
           id="g1025"
           transform="matrix(1.1174072,0,0,1.1336681,-3.6660698,-32.790167)">
          <path
             inkscape:export-filename="C:\Users\jason\OneDrive\2019-2020\mcamc\penguin.png"
             inkscape:export-ydpi="500"
             inkscape:export-xdpi="500"
             style="opacity:1;fill:#f8ba05;fill-opacity:1;fill-rule:nonzero;stroke:#f8ba05;stroke-width:1.58749998;stroke-linecap:round;stroke-linejoin:round;stroke-miterlimit:4;stroke-dasharray:none;stroke-dashoffset:0;stroke-opacity:1"
             d="m 30.998738,268.96967 c 0.749343,-0.0226 1.680792,0.20832 1.928177,1.01518 0.273427,1.25849 -0.298571,2.79748 -1.532754,3.32312 -0.975911,0.40694 -2.023229,-0.31472 -2.420173,-1.20101 -0.39556,-0.81063 -0.629208,-1.9453 0.05377,-2.66657 0.529333,-0.48693 1.297622,-0.47542 1.970984,-0.47072 z"
             id="path919"
             inkscape:connector-curvature="0" />
          <path
             inkscape:export-filename="C:\Users\jason\OneDrive\2019-2020\mcamc\penguin.png"
             inkscape:export-ydpi="500"
             inkscape:export-xdpi="500"
             inkscape:connector-curvature="0"
             id="path898"
             d="m 35.332947,288.765 c -0.59219,0.0513 -1.244801,-0.0633 -1.794542,0.1968 -0.779523,0.47906 -0.570259,1.90385 0.365408,2.0331 1.21189,0.0756 2.44107,0.0566 3.647938,0.0238 0.425503,-0.24025 0.827063,-0.70917 0.712679,-1.24023 -0.02619,-0.55371 -0.516033,-1.0142 -1.075341,-0.96677 -0.61732,-0.0479 -1.237316,-0.051 -1.856142,-0.0467 z"
             style="opacity:1;fill:#f8ba05;fill-opacity:1;fill-rule:nonzero;stroke:#f8ba05;stroke-width:1.58749998;stroke-linecap:round;stroke-linejoin:round;stroke-miterlimit:4;stroke-dasharray:none;stroke-dashoffset:0;stroke-opacity:1" />
          <path
             inkscape:export-filename="C:\Users\jason\OneDrive\2019-2020\mcamc\penguin.png"
             inkscape:export-ydpi="500"
             inkscape:export-xdpi="500"
             inkscape:connector-curvature="0"
             id="path896"
             d="m 25.57761,288.765 c -0.592192,0.0513 -1.244802,-0.0633 -1.794542,0.1968 -0.779523,0.47906 -0.570259,1.90385 0.365407,2.0331 1.21189,0.0756 2.44107,0.0566 3.647939,0.0238 0.424205,-0.25232 0.85901,-0.73832 0.713723,-1.28199 -0.04439,-0.53751 -0.531159,-0.9725 -1.076387,-0.92501 -0.617318,-0.0479 -1.237313,-0.051 -1.85614,-0.0467 z"
             style="opacity:1;fill:#f8ba05;fill-opacity:1;fill-rule:nonzero;stroke:#f8ba05;stroke-width:1.58749998;stroke-linecap:round;stroke-linejoin:round;stroke-miterlimit:4;stroke-dasharray:none;stroke-dashoffset:0;stroke-opacity:1" />
          <path
             inkscape:export-filename="C:\Users\jason\OneDrive\2019-2020\mcamc\penguin.png"
             inkscape:export-ydpi="500"
             inkscape:export-xdpi="500"
             inkscape:connector-curvature="0"
             id="path900"
             d="m 48.935504,273.03747 c -0.344974,-0.0192 -0.862333,0.099 -0.68725,0.55527 0.278522,2.06265 0.169683,4.18558 0.05756,6.25864 0.149003,0.45909 0.653545,0.0498 0.941337,-0.0688 1.504514,-0.85082 2.899945,-2.00456 3.807547,-3.49251 0.399619,-0.65971 0.591805,-1.63173 -0.06421,-2.20171 -1.080883,-0.95212 -2.69236,-1.00914 -4.05498,-1.05094 z"
             style="opacity:1;fill:#f8ba05;fill-opacity:1;fill-rule:nonzero;stroke:#f8ba05;stroke-width:1.58749998;stroke-linecap:round;stroke-linejoin:round;stroke-miterlimit:4;stroke-dasharray:none;stroke-dashoffset:0;stroke-opacity:1" />
          <path
             inkscape:export-filename="C:\Users\jason\OneDrive\2019-2020\mcamc\penguin.png"
             inkscape:export-ydpi="500"
             inkscape:export-xdpi="500"
             inkscape:connector-curvature="0"
             id="path890"
             d="m 30.640593,255.31442 c -3.10339,-0.006 -6.173113,1.09946 -8.59125,3.03812 -3.451409,2.75575 -5.662595,6.79936 -6.89436,10.98513 -0.783159,2.69477 -1.210717,5.50467 -1.086337,8.31485 0.04866,2.68853 0.689319,5.50189 2.492673,7.57757 0.290029,0.27639 0.513828,0.76145 0.951225,0.79658 0.444583,-0.16795 0.303301,-0.76443 0.437445,-1.13081 0.163963,-0.6408 0.470344,-1.27859 0.781038,-1.86745 0.20972,-0.18796 0.309211,-0.38479 0.325059,-0.75 0.111899,-0.57201 0.407385,-1.13655 0.382765,-1.71598 -0.261002,-0.27218 -0.238946,-0.51399 -0.07577,-0.83308 0.324413,-1.04969 0.912108,-2.01133 1.219144,-3.07617 0.244756,-0.84397 -0.259708,-1.65187 -0.833266,-2.22832 -1.306913,-1.47674 -2.055948,-3.45476 -1.951792,-5.40739 -0.002,-2.68619 1.639205,-5.29841 3.994166,-6.59718 2.51391,-1.42992 5.79742,-1.25936 8.179867,0.37486 0.34867,0.26161 0.831853,0.55382 1.241906,0.2312 1.017403,-0.64097 2.09404,-1.22501 3.289451,-1.44989 0.924319,-0.1554 1.875729,-0.11144 2.804763,-0.0373 2.453024,0.427 4.671267,2.07633 5.726047,4.34698 1.292828,2.58314 0.932055,5.8731 -0.881267,8.12057 -0.490513,0.65014 -1.239652,1.24887 -1.194228,2.14667 -0.04717,0.8727 0.529524,1.61434 0.802984,2.40803 0.958228,2.34192 1.631354,4.77342 2.032317,7.26704 0.20328,0.39752 0.664313,0.0834 0.845659,-0.16352 2.076241,-2.14432 2.85836,-5.22215 2.877709,-8.13735 0.09586,-2.57912 -0.280826,-5.15304 -0.957403,-7.63798 -0.44818,-1.71592 -0.782571,-3.29529 -1.563486,-4.88654 -0.425966,-0.84583 -0.946857,-1.71223 -1.428443,-2.48686 -0.445479,-0.0479 -0.584989,-0.56281 -0.865019,-0.85278 -2.176428,-2.97571 -5.342384,-5.35796 -9.01279,-6.06042 -1.002443,-0.20236 -2.026296,-0.29752 -3.048807,-0.28856 z"
             style="opacity:1;fill:#f8ba05;fill-opacity:1;fill-rule:nonzero;stroke:none;stroke-width:0.52916664;stroke-linecap:round;stroke-linejoin:round;stroke-miterlimit:4;stroke-dasharray:none;stroke-dashoffset:0;stroke-opacity:1"
             sodipodi:nodetypes="ccccccccccccccccccccccccccccccccc"
             clip-path="none" />
          <path
             inkscape:export-filename="C:\Users\jason\OneDrive\2019-2020\mcamc\penguin.png"
             inkscape:export-ydpi="500"
             inkscape:export-xdpi="500"
             inkscape:connector-curvature="0"
             id="path892"
             d="m 25.545115,262.4062 c -2.077652,-0.0861 -4.097859,0.97482 -5.361969,2.59676 -1.603734,1.9846 -1.934817,4.8777 -0.821901,7.17359 0.397636,0.92859 1.155277,1.61619 1.718199,2.43322 0.58267,0.88603 0.652312,2.05721 0.16365,2.99999 -0.547462,1.2514 -0.822791,2.59518 -1.330466,3.88592 -0.191611,0.49412 -0.360906,0.99552 -0.407039,1.53807 -0.0041,0.4186 -0.211573,0.396 -0.255849,0.87343 -0.194064,1.02312 -0.634483,1.96367 -0.610305,3.01056 0.229811,0.41885 0.78465,0.51773 1.172136,0.75253 0.912878,0.40497 1.852285,0.825 2.826817,1.01814 0.445226,-0.23587 0.761196,-0.81483 1.350988,-0.7797 1.300445,-0.0785 2.64725,-0.0223 3.968212,-0.0399 0.707865,0.27391 1.2714,0.87251 1.514407,1.58335 0.340011,0.25759 0.858999,0.057 1.271564,0.1205 0.448654,-0.062 0.994685,0.13604 1.376243,-0.12316 0.243557,-0.69186 0.784109,-1.36963 1.525225,-1.54415 1.345766,-0.0581 2.698438,-0.0561 4.044278,-5.3e-4 0.531045,0.0599 0.84074,0.57464 1.285973,0.78471 1.309711,-0.33801 2.592088,-0.8387 3.763177,-1.51892 0.421245,-0.27472 0.130069,-0.84443 0.124237,-1.24329 -0.446439,-2.87424 -1.319585,-5.68159 -2.525358,-8.3202 -0.526095,-1.0527 -0.397613,-2.38434 0.363842,-3.29011 1.074095,-1.18109 1.992154,-2.62275 2.111796,-4.25334 0.10745,-1.23322 0.02791,-2.51582 -0.541457,-3.63802 -0.912926,-2.00498 -2.827493,-3.5573 -5.005691,-3.94143 -1.255221,-0.11335 -2.579185,-0.17434 -3.75806,0.35217 -0.884925,0.28463 -1.55089,1.02449 -2.461178,1.23356 -0.96244,0.19307 -1.649447,-0.65363 -2.461688,-0.99398 -0.94349,-0.49784 -1.975194,-0.7171 -3.039783,-0.6698 z m -0.76083,3.58047 c 0.892367,-0.007 1.742931,0.87643 1.564727,1.77366 -0.131618,0.41106 -0.699973,0.36396 -0.851661,-0.004 -0.05767,-0.30606 -0.122312,-0.67988 -0.481424,-0.77597 -0.42911,-0.1944 -0.919233,0.123 -0.965067,0.58308 0.03393,0.44613 -0.616841,0.65804 -0.851661,0.29886 -0.267192,-0.82901 0.466138,-1.78051 1.313901,-1.86071 0.0898,-0.0122 0.180598,-0.0171 0.271185,-0.015 z m 12.137141,0.002 c 0.893617,0.004 1.740736,0.98733 1.464633,1.8658 -0.209815,0.32791 -0.775325,0.23803 -0.824908,-0.16717 -0.01003,-0.48084 -0.481319,-0.92356 -0.964414,-0.71529 -0.363318,0.0899 -0.473977,0.45279 -0.517575,0.77349 -0.111144,0.36667 -0.622586,0.41798 -0.807159,0.086 -0.218768,-0.44499 0.08212,-1.00342 0.384461,-1.34496 0.318428,-0.36986 0.792046,-0.50298 1.264962,-0.49787 z m -6.126969,2.05307 c 1.089122,-0.0464 2.379159,0.29139 2.88228,1.36023 0.476922,1.09347 0.178126,2.37793 -0.365537,3.38942 -0.659964,1.22053 -2.26059,1.95569 -3.56716,1.33125 -1.545691,-0.69305 -2.29049,-2.56653 -2.021044,-4.17781 0.195384,-1.16639 1.383575,-1.85239 2.491854,-1.88245 0.192802,-0.015 0.386281,-0.0197 0.579607,-0.0206 z"
             style="opacity:1;fill:#ffffff;fill-opacity:1;fill-rule:nonzero;stroke:#ffffff;stroke-width:1.58749998;stroke-linecap:round;stroke-linejoin:round;stroke-miterlimit:4;stroke-dasharray:none;stroke-dashoffset:0;stroke-opacity:1"
             sodipodi:nodetypes="ccccccccccccccccccccccccccccccccccccccccccccccccccccccc" />
          <path
             inkscape:export-ydpi="500"
             inkscape:export-xdpi="500"
             inkscape:export-filename="C:\Users\jason\OneDrive\2019-2020\mcamc\penguin.png"
             inkscape:connector-curvature="0"
             id="path962"
             d="m 30.492546,279.39934 c -0.150929,-0.06 -0.367364,-0.26493 -0.453065,-0.42898 -0.09759,-0.1868 -0.08488,-0.59789 0.024,-0.77645 0.281046,-0.4609 0.880168,-0.57707 1.259316,-0.24418 0.222366,0.19524 0.314584,0.38641 0.314584,0.65212 0,0.47244 -0.385381,0.85549 -0.852614,0.84745 -0.09576,-0.002 -0.227253,-0.0241 -0.292217,-0.05 z"
             style="fill:#f8ba05;fill-opacity:1;stroke:#f8ba05;stroke-width:0.16008411;stroke-linecap:round;stroke-linejoin:round;stroke-miterlimit:4;stroke-dasharray:none;stroke-opacity:1" />
          <path
             inkscape:export-filename="C:\Users\jason\OneDrive\2019-2020\mcamc\penguin.png"
             inkscape:export-ydpi="500"
             inkscape:export-xdpi="500"
             inkscape:connector-curvature="0"
             id="path888"
             d="m 12.338373,273.03564 c -1.331208,0.0809 -2.8499487,0.16786 -3.8579207,1.15809 -0.6151025,0.63878 -0.2625569,1.61157 0.146685,2.26056 1.0063165,1.56026 2.5149517,2.77699 4.1871787,3.56325 0.311598,0.17184 0.550079,-0.20429 0.447233,-0.48704 -0.214467,-2.04467 -0.153102,-4.10523 0.07282,-6.13689 -0.08383,-0.43892 -0.671995,-0.34118 -0.995997,-0.35797 z"
             style="opacity:1;fill:#f8ba05;fill-opacity:1;fill-rule:nonzero;stroke:#f8ba05;stroke-width:1.58749998;stroke-linecap:round;stroke-linejoin:round;stroke-miterlimit:4;stroke-dasharray:none;stroke-dashoffset:0;stroke-opacity:1" />
          <path
             inkscape:export-ydpi="500"
             inkscape:export-xdpi="500"
             inkscape:export-filename="C:\Users\jason\OneDrive\2019-2020\mcamc\penguin.png"
             inkscape:connector-curvature="0"
             id="path958"
             d="m 25.730334,280.80271 c -0.321411,-0.36607 -0.496211,-1.16875 -0.489572,-2.24811 0.0068,-1.1013 0.209513,-1.92252 0.544139,-2.20409 0.13691,-0.1152 0.168866,-0.12139 0.501618,-0.0972 0.398806,0.029 0.90574,0.18584 1.536569,0.47543 0.507359,0.23291 1.440947,0.72551 1.522854,0.80352 0.04584,0.0437 0.03392,0.10338 -0.0562,0.28138 -0.261821,0.51717 -0.258511,1.11173 0.0089,1.60309 0.06736,0.12377 0.11372,0.2327 0.103023,0.24208 -0.100063,0.0878 -1.282183,0.69414 -1.716468,0.88049 -0.694056,0.29781 -1.14922,0.4249 -1.521747,0.4249 -0.272486,0 -0.300529,-0.0104 -0.433141,-0.16149 z"
             style="fill:#f8ba05;fill-opacity:1;stroke:#f8ba05;stroke-width:0.32016823;stroke-linecap:round;stroke-linejoin:round;stroke-miterlimit:4;stroke-dasharray:none;stroke-opacity:1" />
          <g
             style="fill:#000000;fill-opacity:1"
             inkscape:export-ydpi="500"
             inkscape:export-xdpi="500"
             inkscape:export-filename="C:\Users\jason\OneDrive\2019-2020\mcamc\penguin.png"
             transform="matrix(0.09301812,0,0,0.09301812,6.7082255,249.51332)"
             id="g3837">
            <g
               style="fill:#000000;fill-opacity:1"
               id="g3776">
              <g
                 style="fill:#000000;fill-opacity:1"
                 id="g3774">
                <g
                   style="fill:#000000;fill-opacity:1"
                   id="g3772">
                  <path
                     style="fill:#000000;fill-opacity:1"
                     inkscape:connector-curvature="0"
                     d="m 510.434,266.914 c -7.35,-20.195 -38.601,-26.742 -67.027,-24.635 -5.223,-28.002 -14.299,-56.088 -26.838,-81.087 -1.857,-3.702 -6.363,-5.198 -10.067,-3.341 -3.702,1.857 -5.198,6.364 -3.341,10.066 26.72,53.267 37.018,120.914 26.4,168.998 -0.037,0.149 -0.067,0.3 -0.094,0.452 -0.741,3.306 -1.578,6.523 -2.519,9.631 -5.672,18.725 -15.005,33.734 -28.432,45.747 -5.46,-34.677 -15.362,-67.262 -28.919,-94.908 -3.852,-7.853 -2.246,-17.375 3.995,-23.691 16.634,-16.839 25.474,-39.155 24.89,-62.839 -0.544,-22.06 -9.501,-42.903 -25.224,-58.69 -15.724,-15.788 -36.528,-24.831 -58.585,-25.463 -19.799,-0.563 -38.598,5.4 -54.37,17.26 -2.533,1.906 -6.073,1.906 -8.608,-10e-4 -15.771,-11.858 -34.569,-17.824 -54.37,-17.26 -22.057,0.632 -42.862,9.675 -58.585,25.463 -15.722,15.788 -24.679,36.63 -25.223,58.69 -0.584,23.684 8.255,46.001 24.889,62.839 6.24,6.317 7.846,15.838 3.995,23.69 -4.726,9.637 -9.074,20.054 -12.924,30.959 -1.379,3.906 0.67,8.19 4.576,9.569 3.906,1.378 8.19,-0.67 9.569,-4.576 3.656,-10.357 7.776,-20.232 12.247,-29.347 6.657,-13.575 3.928,-29.987 -6.792,-40.837 -13.743,-13.912 -21.047,-32.354 -20.565,-51.927 0.449,-18.205 7.855,-35.419 20.856,-48.475 13,-13.055 30.184,-20.532 48.385,-21.054 16.368,-0.474 31.899,4.46 44.925,14.253 7.842,5.897 18.797,5.897 26.639,0 13.026,-9.794 28.569,-14.728 44.926,-14.255 18.201,0.521 35.385,7.998 48.386,21.054 13.001,13.054 20.408,30.27 20.856,48.475 0.482,19.573 -6.82,38.014 -20.564,51.927 -10.72,10.85 -13.449,27.262 -6.792,40.837 13.727,27.989 23.858,62.843 28.733,98.6 -11.457,7.272 -25.006,12.936 -41.025,17.158 -4.577,-5.721 -11.61,-9.395 -19.49,-9.395 H 292.51 c -11.528,0 -21.252,7.859 -24.105,18.5 -8.142,0.172 -16.674,0.172 -24.816,0 -2.854,-10.64 -12.576,-18.5 -24.105,-18.5 H 187.65 c -7.879,0 -14.913,3.674 -19.49,9.394 -16.024,-4.223 -29.575,-9.889 -41.035,-17.165 1.703,-12.51 4.043,-24.956 6.981,-37.059 0.977,-4.025 -1.495,-8.08 -5.52,-9.057 -4.027,-0.977 -8.081,1.494 -9.057,5.52 -2.409,9.93 -4.427,20.082 -6.045,30.309 -13.429,-12.013 -22.763,-27.024 -28.435,-45.75 -0.954,-3.152 -1.806,-6.451 -2.56,-9.874 -0.006,-0.028 -0.012,-0.055 -0.019,-0.083 -5.185,-23.6 -5.574,-53.297 -0.648,-84.407 0.127,-0.412 0.228,-0.837 0.284,-1.28 0.034,-0.271 0.052,-0.541 0.057,-0.809 6.677,-40.303 22.258,-82.788 47.879,-117.319 22.659,-30.538 62.903,-66.94 125.957,-66.94 66.646,0 108.075,40.333 131.094,74.17 2.329,3.424 6.992,4.313 10.42,1.983 3.425,-2.33 4.313,-6.995 1.982,-10.42 -35.93,-52.815 -85.551,-80.733 -143.496,-80.733 -54.848,0 -102.569,25.244 -138.004,73.003 -23.483,31.649 -40.987,73.105 -49.288,116.729 -0.079,0.418 -0.152,0.835 -0.23,1.252 -28.397,-2.08 -59.574,4.475 -66.914,24.643 -4.701,12.917 1.284,29.143 16.853,45.688 12.61,13.401 29.725,25.105 44.664,30.541 1.937,0.705 3.896,1.311 5.858,1.832 0.547,2.172 1.129,4.301 1.757,6.372 12.839,42.388 42.995,69.563 92.049,82.922 -0.029,0.495 -0.049,0.993 -0.049,1.495 0,13.761 11.195,24.958 24.958,24.958 h 31.834 c 10.767,0 19.963,-6.854 23.455,-16.428 4.276,0.093 8.641,0.145 13.058,0.145 4.417,0 8.781,-0.051 13.058,-0.145 3.492,9.573 12.687,16.428 23.455,16.428 h 31.834 c 13.763,0 24.958,-11.195 24.958,-24.958 0,-0.502 -0.019,-1 -0.049,-1.494 49.054,-13.358 79.21,-40.532 92.049,-82.922 0.629,-2.076 1.201,-4.21 1.747,-6.369 1.965,-0.521 3.927,-1.128 5.868,-1.834 14.938,-5.438 32.052,-17.141 44.663,-30.541 15.567,-16.541 21.552,-32.767 16.851,-45.684 z M 65.622,328.037 C 53.502,323.017 39.539,313.164 29.338,302.322 18.185,290.47 13.07,279.15 15.656,272.044 c 3.749,-10.303 25.568,-16.499 50.427,-14.912 -3.414,25.118 -3.553,49.587 -0.461,70.905 z m 163.784,108.225 c -0.003,0.061 0.001,0.122 0,0.183 -0.352,5.173 -4.661,9.276 -9.922,9.276 H 187.65 c -5.49,0 -9.957,-4.466 -9.957,-9.957 0,-5.49 4.466,-9.957 9.957,-9.957 h 31.834 c 5.478,0 9.934,4.447 9.955,9.92 z m 94.938,9.459 H 292.51 c -5.261,0 -9.571,-4.105 -9.922,-9.279 -0.002,-0.065 0.003,-0.128 0,-0.193 l -0.034,-0.485 c 0,-5.49 4.466,-9.957 9.956,-9.957 h 31.834 c 5.49,0 9.957,4.467 9.957,9.957 0.001,5.491 -4.466,9.957 -9.957,9.957 z M 446.38,328.038 c 3.152,-21.611 2.867,-45.991 -0.565,-70.899 24.899,-1.607 46.769,4.589 50.523,14.906 5.572,15.308 -24.336,45.423 -49.958,55.993 z"
                     id="path3764" />
                  <path
                     style="fill:#000000;fill-opacity:1"
                     inkscape:connector-curvature="0"
                     d="m 315.755,196.002 c 0,-2.828 2.301,-5.128 5.128,-5.128 2.827,0 5.128,2.301 5.128,5.128 0,4.142 3.357,7.5 7.5,7.5 4.143,0 7.5,-3.358 7.5,-7.5 0,-11.099 -9.029,-20.129 -20.129,-20.129 -11.099,0 -20.129,9.03 -20.129,20.129 0,4.142 3.357,7.5 7.5,7.5 4.144,10e-4 7.502,-3.358 7.502,-7.5 z"
                     id="path3766" />
                  <path
                     style="fill:#000000;fill-opacity:1"
                     inkscape:connector-curvature="0"
                     d="m 255.997,271.205 c 15.207,0 32.361,-12.622 35.726,-36.748 1.524,-10.93 -0.507,-19.694 -6.037,-26.049 -6.079,-6.985 -16.068,-10.527 -29.688,-10.527 -13.622,0 -23.61,3.542 -29.689,10.527 -5.53,6.355 -7.561,15.12 -6.038,26.049 3.364,24.125 20.518,36.748 35.726,36.748 z m -18.373,-52.95 c 3.103,-3.566 9.284,-5.374 18.373,-5.374 9.089,0 15.27,1.808 18.373,5.374 2.555,2.936 3.395,7.689 2.497,14.13 -2.158,15.471 -12.363,23.82 -20.87,23.82 -8.507,0 -18.712,-8.348 -20.87,-23.819 -0.898,-6.442 -0.058,-11.196 2.497,-14.131 z"
                     id="path3768" />
                  <path
                     style="fill:#000000;fill-opacity:1"
                     inkscape:connector-curvature="0"
                     d="m 185.982,196.002 c 0,-2.828 2.301,-5.128 5.128,-5.128 2.828,0 5.128,2.301 5.128,5.128 0,4.142 3.358,7.5 7.5,7.5 4.142,0 7.5,-3.358 7.5,-7.5 0,-11.099 -9.03,-20.129 -20.129,-20.129 -11.099,0 -20.129,9.03 -20.129,20.129 0,4.142 3.358,7.5 7.5,7.5 4.142,0 7.502,-3.358 7.502,-7.5 z"
                     id="path3770" />
                </g>
              </g>
            </g>
            <g
               style="fill:#000000;fill-opacity:1"
               id="g3778" />
            <g
               style="fill:#000000;fill-opacity:1"
               id="g3780" />
            <g
               style="fill:#000000;fill-opacity:1"
               id="g3782" />
            <g
               style="fill:#000000;fill-opacity:1"
               id="g3784" />
            <g
               style="fill:#000000;fill-opacity:1"
               id="g3786" />
            <g
               style="fill:#000000;fill-opacity:1"
               id="g3788" />
            <g
               style="fill:#000000;fill-opacity:1"
               id="g3790" />
            <g
               style="fill:#000000;fill-opacity:1"
               id="g3792" />
            <g
               style="fill:#000000;fill-opacity:1"
               id="g3794" />
            <g
               style="fill:#000000;fill-opacity:1"
               id="g3796" />
            <g
               style="fill:#000000;fill-opacity:1"
               id="g3798" />
            <g
               style="fill:#000000;fill-opacity:1"
               id="g3800" />
            <g
               style="fill:#000000;fill-opacity:1"
               id="g3802" />
            <g
               style="fill:#000000;fill-opacity:1"
               id="g3804" />
            <g
               style="fill:#000000;fill-opacity:1"
               id="g3806" />
          </g>
          <path
             d="m 33.058161,251.90157 c -0.433046,0.41399 -0.849675,0.849 -1.248152,1.30436 l -0.793191,-2.19577 c -0.981492,-2.71706 -1.64578,-5.47256 -2.011914,-8.22526 -0.09645,-0.72515 -0.836373,-1.17273 -1.518711,-0.9225 l -12.354682,4.53078 c -0.682337,0.25024 -0.963563,1.07229 -0.574836,1.69026 1.475629,2.34582 2.724651,4.88689 3.706144,7.60394 l 0.793189,2.19577 c -0.595795,-0.0907 -1.192423,-0.15415 -1.788309,-0.1908 -2.10081,-0.12925 -2.422525,2.98768 -0.34359,3.31886 0.4066,0.0648 0.815848,0.11723 1.227212,0.15706 l -4.9e-5,2e-5 4.9e-5,-2e-5 c 2.923654,0.28324 5.954216,-0.0694 8.898092,-1.14899 2.943874,-1.0796 5.490388,-2.77222 7.549344,-4.88271 l 4.7e-5,-2e-5 -4.7e-5,2e-5 c 0.289696,-0.29699 0.569746,-0.6022 0.839951,-0.91515 1.381164,-1.60014 -0.853687,-3.77945 -2.380547,-2.31985 z"
             id="path4"
             inkscape:connector-curvature="0"
             style="fill:#ffffff;stroke-width:0.05199907"
             inkscape:export-filename="C:\Users\jason\OneDrive\2019-2020\mcamc\penguin.png"
             inkscape:export-xdpi="500"
             inkscape:export-ydpi="500" />
          <path
             d="m 18.262819,255.68738 12.753952,-4.67721 1.063066,2.94287 -12.75395,4.67721 z"
             id="path6"
             inkscape:connector-curvature="0"
             style="fill:#f8ba05;fill-opacity:1;stroke-width:0.05199907"
             inkscape:export-filename="C:\Users\jason\OneDrive\2019-2020\mcamc\penguin.png"
             inkscape:export-xdpi="500"
             inkscape:export-ydpi="500" />
          <path
             d="m 31.415868,253.64108 -11.780368,4.32017 -0.70871,-1.96191 11.780365,-4.32017 z m -1.059904,-2.94403 -11.786695,4.32249 c -0.950164,-2.52746 -2.151499,-4.95254 -3.575047,-7.21554 -0.251374,-0.37417 0.01747,-0.81142 0.314467,-0.92034 l 12.354684,-4.53078 c 0.271873,-0.0997 0.763031,0.0194 0.828051,0.5014 0.353222,2.65546 0.979995,5.29124 1.86454,7.84277 z m 4.691654,3.18189 c -0.248314,0.26319 -0.480432,0.54117 -0.731405,0.80129 -0.720898,0.20361 -1.489364,-0.18534 -1.749584,-0.90571 l -0.163677,-0.4531 c 0.323832,-0.3586 0.662047,-0.70898 1.011525,-1.041 0.281628,-0.26758 0.945201,-0.62119 1.571883,0.0158 0.626685,0.63696 0.312121,1.31683 0.06126,1.58274 z m -17.748316,3.29214 c -1.293431,-0.0814 -2.162358,0.86081 -2.287929,1.96589 -0.07641,0.6724 0.20891,2.11876 1.831641,2.39006 1.417756,0.22549 3.424406,0.24442 4.854662,0.17121 0.691799,-0.0354 0.624219,-0.99877 -0.06758,-0.96337 -0.519835,0.0266 -1.588486,0.0119 -2.110163,-0.003 0.348022,-0.50789 0.506633,-1.13906 0.418841,-1.77064 l 11.882593,-4.35765 c 0.335271,0.54003 0.858576,0.92057 1.448294,1.08452 -1.862899,1.66599 -4.038043,2.9758 -6.397425,3.84105 -0.433732,0.15906 -1.557054,0.53968 -1.998228,0.66745 -0.664085,0.19241 -0.417951,1.13988 0.24616,0.94754 0.46463,-0.13456 1.650785,-0.46694 2.106423,-0.63404 l 5.69e-4,-0.003 9.51e-4,0.002 c 4.663905,-1.71038 7.476305,-4.62097 8.601815,-5.94511 1.069959,-1.25878 0.365985,-2.55105 -0.121509,-3.01666 -0.801201,-0.76526 -2.067862,-0.92424 -3.006809,-0.0242 -0.236058,0.22632 -0.469105,0.45914 -0.69616,0.69772 l -0.501893,-1.38933 c -0.951311,-2.63341 -1.619233,-5.36403 -1.985281,-8.11604 -0.160508,-1.08804 -1.216575,-1.70773 -2.209241,-1.3437 l -12.3547,4.53079 c -0.843465,0.30932 -1.480173,1.41182 -0.835205,2.46017 1.475253,2.34524 2.705614,4.86959 3.6569,7.50302 l 0.501802,1.38913 c -0.325939,-0.0358 -0.653012,-0.0639 -0.978528,-0.0839 z m -0.06334,1.04248 c 0.479775,0.0293 0.962787,0.077 1.439436,0.14206 l 0.163694,0.45315 c 0.26031,0.72061 -0.08057,1.51655 -0.763217,1.82727 -0.358191,-0.037 -0.715354,-0.0838 -1.070784,-0.14049 -0.361813,-0.0412 -1.03665,-0.3587 -0.962938,-1.25252 0.07371,-0.89382 0.807363,-1.05205 1.193809,-1.02947 z"
             id="path8"
             inkscape:connector-curvature="0"
             sodipodi:nodetypes="ccccccccssccccsccsccccccccccscccccccccscsscsccccsccsc"
             style="stroke-width:0.05199907"
             inkscape:export-filename="C:\Users\jason\OneDrive\2019-2020\mcamc\penguin.png"
             inkscape:export-xdpi="500"
             inkscape:export-ydpi="500" />
          <path
             inkscape:export-ydpi="500"
             inkscape:export-xdpi="500"
             inkscape:export-filename="C:\Users\jason\OneDrive\2019-2020\mcamc\penguin.png"
             inkscape:connector-curvature="0"
             id="path960"
             d="m 34.744778,280.8521 c -0.608925,-0.18393 -1.780296,-0.72526 -2.356546,-1.08903 l -0.190534,-0.12028 0.150908,-0.31967 c 0.132736,-0.28118 0.150968,-0.36824 0.151421,-0.72301 5.29e-4,-0.359 -0.01606,-0.43677 -0.150156,-0.70734 -0.09936,-0.20047 -0.135467,-0.32231 -0.106022,-0.35779 0.02455,-0.0296 0.42191,-0.24632 0.883002,-0.48163 1.038934,-0.53019 1.689613,-0.76589 2.210142,-0.80059 l 0.379605,-0.0253 0.147079,0.16751 c 0.330023,0.37588 0.499579,1.12319 0.500719,2.20689 0.0011,1.07242 -0.16927,1.82938 -0.495427,2.20086 -0.135295,0.15409 -0.156183,0.16137 -0.455816,0.15896 -0.183494,-0.002 -0.461314,-0.047 -0.668375,-0.10957 z"
             style="fill:#f8ba05;fill-opacity:1;stroke:#f8ba05;stroke-width:0.32016823;stroke-linecap:round;stroke-linejoin:round;stroke-miterlimit:4;stroke-dasharray:none;stroke-opacity:1" />
          <path
             inkscape:export-ydpi="500"
             inkscape:export-xdpi="500"
             inkscape:export-filename="C:\Users\jason\OneDrive\2019-2020\mcamc\penguin.png"
             id="path2"
             d="m 36.193345,275.75221 c -0.885845,-0.65887 -3.04553,0.41059 -4.752018,1.46035 -0.194962,-0.09 -0.411231,-0.14164 -0.639812,-0.14164 -0.228581,0 -0.444743,0.0516 -0.639812,0.14164 -1.705737,-1.05008 -3.865531,-2.119 -4.752017,-1.46035 -0.642703,0.47805 -0.871712,1.78679 -0.871712,2.85228 0,1.0655 0.229009,2.37425 0.871925,2.85239 0.189395,0.14079 0.437034,0.20268 0.726106,0.20256 1.063248,0 2.68494,-0.83723 4.025913,-1.6628 0.194962,0.0899 0.411124,0.14154 0.639597,0.14154 0.228474,0 0.444636,-0.0516 0.639598,-0.14164 1.342042,0.82567 2.96427,1.66302 4.026876,1.66302 0.28875,0 0.536175,-0.0619 0.725142,-0.20246 0.644308,-0.47814 0.873853,-1.787 0.873853,-2.85261 0,-1.0656 -0.229545,-2.37445 -0.873639,-2.85228 z m -10.484631,5.30254 c -0.400418,-0.29795 -0.669576,-1.28262 -0.669576,-2.45026 0,-1.16763 0.269158,-2.1523 0.669361,-2.45004 0.484143,-0.35952 2.00466,0.16552 4.004287,1.37138 -0.274832,0.27729 -0.444957,0.65844 -0.444957,1.07866 0,0.42034 0.170125,0.80138 0.444957,1.07868 -1.999413,1.20563 -3.520037,1.73057 -4.004072,1.37158 z m 4.06028,-2.45026 c 0,-0.56936 0.463264,-1.03241 1.032521,-1.03241 0.569151,0 1.032414,0.46305 1.032414,1.03241 0,0.56937 -0.463263,1.03253 -1.032414,1.03253 -0.569257,0 -1.032521,-0.46316 -1.032521,-1.03253 z m 6.125322,2.45026 c -0.483605,0.3592 -2.003374,-0.16583 -4.003857,-1.3718 0.274618,-0.2773 0.444635,-0.65823 0.444635,-1.07846 0,-0.42011 -0.170017,-0.80115 -0.444635,-1.07844 2.000269,-1.20597 3.520252,-1.73133 4.004071,-1.37149 0.401381,0.29775 0.671288,1.28241 0.671288,2.44993 0,1.16754 -0.269907,2.1522 -0.671502,2.45026 z m 0,0"
             inkscape:connector-curvature="0"
             style="stroke:#000000;stroke-width:0.28815141;stroke-miterlimit:4;stroke-dasharray:none;stroke-opacity:1" />
          <g
             inkscape:export-ydpi="500"
             inkscape:export-xdpi="500"
             inkscape:export-filename="C:\Users\jason\OneDrive\2019-2020\mcamc\penguin.png"
             transform="matrix(0.00645312,0.00825964,-0.00825964,0.00645312,83.191463,273.07679)"
             id="g1158"
             style="stroke:#000000;stroke-width:3.05456734;stroke-miterlimit:4;stroke-dasharray:none;stroke-opacity:1">
            <g
               transform="translate(-29.970073,-39.162581)"
               id="g962">
              <g
                 id="g972">
                <g
                   id="g1037"
                   transform="translate(-11.891372,41.606084)">
                  <path
                     inkscape:export-ydpi="500"
                     inkscape:export-xdpi="500"
                     inkscape:export-filename="C:\Users\jason\OneDrive\2019-2020\mcamc\penguin.png"
                     sodipodi:nodetypes="cc"
                     inkscape:connector-curvature="0"
                     id="path5989"
                     d="m -26.241544,-107.58117 106.16161,82.942311"
                     style="fill:none;stroke:#ffffff;stroke-width:162.83670044;stroke-linecap:round;stroke-linejoin:miter;stroke-miterlimit:4;stroke-dasharray:none;stroke-opacity:1" />
                  <path
                     id="path2-9"
                     d="m -2507.3421,426.4957 -18.0334,383.25107 c -1.9816,42.14057 45.3063,68.19407 79.8605,43.99317 l 318.5161,-223.0258 c 34.5601,-24.19502 26.2586,-77.54485 -14.0234,-90.09672 z"
                     style="fill:#ffffff;fill-opacity:1;stroke:#000000;stroke-width:3.05456734;stroke-miterlimit:4;stroke-dasharray:none;stroke-opacity:1"
                     inkscape:connector-curvature="0"
                     inkscape:export-filename="C:\Users\jason\OneDrive\2019-2020\mcamc\penguin.png"
                     inkscape:export-xdpi="500"
                     inkscape:export-ydpi="500" />
                  <circle
                     transform="rotate(-45)"
                     id="circle6"
                     r="1012.5045"
                     cy="-2382.5857"
                     cx="-1913.8324"
                     style="fill:#f8ba05;fill-opacity:1;stroke:#000000;stroke-width:3.05456734;stroke-miterlimit:4;stroke-dasharray:none;stroke-opacity:1"
                     inkscape:export-filename="C:\Users\jason\OneDrive\2019-2020\mcamc\penguin.png"
                     inkscape:export-xdpi="500"
                     inkscape:export-ydpi="500" />
                  <path
                     id="path10"
                     d="m -2906.1995,1174.5892 48.7887,380.5659 c 5.3702,41.8474 56.457,59.2828 86.286,29.4538 l 274.9451,-274.945 c 29.8349,-29.8349 12.3936,-80.9276 -29.4538,-86.286 z"
                     style="fill:#f8ba05;fill-opacity:1;stroke:#000000;stroke-width:3.05456734;stroke-miterlimit:4;stroke-dasharray:none;stroke-opacity:1"
                     inkscape:connector-curvature="0"
                     inkscape:export-filename="C:\Users\jason\OneDrive\2019-2020\mcamc\penguin.png"
                     inkscape:export-xdpi="500"
                     inkscape:export-ydpi="500" />
                  <circle
                     transform="rotate(-45)"
                     id="circle14"
                     r="1012.5045"
                     cy="-2149.7747"
                     cx="-2885.5532"
                     style="fill:#ffffff;fill-opacity:1;stroke:none;stroke-width:3.05456734;stroke-miterlimit:4;stroke-dasharray:none;stroke-opacity:1"
                     inkscape:export-filename="C:\Users\jason\OneDrive\2019-2020\mcamc\penguin.png"
                     inkscape:export-xdpi="500"
                     inkscape:export-ydpi="500" />
                  <path
                     id="path18"
                     d="m -3717.9258,1523.8019 114.1334,366.3081 c 12.5519,40.282 65.89,48.5835 90.0967,14.0233 l 223.0199,-318.5101 c 24.195,-34.5602 -1.8468,-81.848 -43.9873,-79.8665 z"
                     style="fill:#ffffff;fill-opacity:1;stroke:#000000;stroke-width:3.05456734;stroke-miterlimit:4;stroke-dasharray:none;stroke-opacity:1"
                     inkscape:connector-curvature="0"
                     inkscape:export-filename="C:\Users\jason\OneDrive\2019-2020\mcamc\penguin.png"
                     inkscape:export-xdpi="500"
                     inkscape:export-ydpi="500" />
                  <circle
                     transform="rotate(-45)"
                     id="circle22"
                     r="1012.5045"
                     cy="-2462.7598"
                     cx="-3867.1321"
                     style="fill:#f8ba05;fill-opacity:1;stroke:#000000;stroke-width:3.05456734;stroke-miterlimit:4;stroke-dasharray:none;stroke-opacity:1"
                     inkscape:export-filename="C:\Users\jason\OneDrive\2019-2020\mcamc\penguin.png"
                     inkscape:export-xdpi="500"
                     inkscape:export-ydpi="500" />
                  <path
                     style="stroke:#000000;stroke-width:3.05456734;stroke-miterlimit:4;stroke-dasharray:none;stroke-opacity:1"
                     id="path28"
                     d="m -2991.8992,-1405.2207 c -34.3022,-1.5067 -63.3339,25.0979 -64.8347,59.4059 -1.5067,34.3139 25.092,63.3398 59.4118,64.8406 297.9851,13.015 566.8682,160.4247 737.7225,404.42104 288.6167,412.20062 203.5559,976.014451 -183.8224,1286.33454 -0.1349,0.11139 -0.2756,0.21692 -0.4163,0.33417 -14.4924,11.59626 -29.3951,22.85248 -44.7259,33.71591 -5.1708,-73.27099 -17.8223,-146.58889 -38.3943,-218.83393 -9.4036,-33.02999 -43.8113,-52.18316 -76.8354,-42.77366 -33.03,9.40364 -52.1773,43.80548 -42.7678,76.82961 88.8128,311.88541 12.2822,646.45336 -199.5401,887.92862 -0.1114,0.1231 -0.2286,0.2521 -0.34,0.3752 -13.484,15.3601 -27.4781,30.3625 -42.0526,44.937 -14.551,14.551 -29.571,28.5509 -44.9545,42.0701 -0.1056,0.094 -0.2111,0.1876 -0.3166,0.2814 -115.0187,100.9954 -252.4209,172.7245 -401.1496,208.9144 -0.8501,0.018 -1.7119,0.047 -2.5972,0.088 -0.023,0 -0.053,0.01 -0.082,0 l -165.9941,7.809 c 94.6168,-199.5928 125.2196,-423.0641 86.0808,-645.02275 -49.8498,-282.68958 -206.8097,-529.0661 -441.9535,-693.71772 -138.0294,-96.651109 -291.0965,-156.197719 -447.306,-180.838289 23.087,-29.207564 47.88,-57.166391 74.2911,-83.577481 370.5409,-370.54091 973.4467,-370.53506 1343.9817,-1e-5 62.0265,62.026487 115.007,131.879581 157.4641,207.624601 16.7964,29.95212 54.6923,40.62208 84.6503,23.83154 5.1064,-2.86682 9.6557,-6.33749 13.6013,-10.28303 19.1942,-19.19421 24.1657,-49.51567 10.242,-74.3673096 -48.0324,-85.6821544 -107.9249,-164.6633414 -178.0067,-234.7450714 -317.8653,-317.86524 -786.9099,-394.52484 -1177.7882,-230.14293 37.4621,-258.62351 177.7839,-487.93981 395.1756,-640.15095 105.1226,-73.6052 221.4722,-124.4106 345.8183,-151.0035 33.5811,-7.1875 54.9796,-40.2293 47.7979,-73.8162 -7.1817,-33.5869 -40.2234,-54.9855 -73.8104,-47.8038 -140.7145,30.0987 -272.3068,87.5406 -391.1421,170.7546 -269.3638,188.6356 -434.1503,481.83694 -455.8596,808.63678 -74.9535,44.62038 -145.6215,99.10755 -210.0576,163.5436 -48.6714,48.67145 -92.5707,101.9392 -130.9298,158.636581 -346.9205,-7.416183 -691.3259,152.63328 -904.9011,457.618389 -339.8911,485.42479 -221.4955,1156.87625 263.9351,1496.77315 159.4867,111.6829 345.9355,177.995 539.1674,191.737 34.267,2.4447 64.0022,-23.3626 66.4352,-57.6061 2.4388,-34.2612 -23.3567,-64.0081 -57.612,-66.4411 -170.7722,-12.1532 -335.5997,-70.7852 -476.6542,-169.5586 -429.2609,-300.5764 -533.9497,-894.31296 -233.385,-1323.56215 300.5999,-429.296059 894.3189,-533.943779 1323.568,-233.37911 207.9295,145.59812 346.727,363.45887 390.808,613.4468 40.4521,229.39246 -3.3593,460.61996 -123.3436,657.83846 -0.2287,0.3693 -0.4514,0.7328 -0.6742,1.0963 -10.5703,17.324 -21.6624,34.4077 -33.4052,51.1806 -11.7897,16.8316 -24.0954,33.1707 -36.8114,49.0877 -0.1641,0.1993 -0.3224,0.4045 -0.4807,0.6097 -142.4675,177.995 -341.9958,297.7917 -568.0642,339.6566 -33.7687,6.2496 -56.076,38.6992 -49.8264,72.4679 6.2495,33.7686 38.705,56.07 72.4678,49.8146 216.0199,-40.0006 410.6119,-142.8778 562.9637,-295.2297 1.5419,-1.5418 3.0427,-3.1247 4.5729,-4.6783 l 49.4512,158.7069 c 12.9094,41.4487 47.5868,71.3422 90.4895,78.0256 36.1899,5.6339 71.8229,-6.2554 97.0321,-31.4647 4.6726,-4.6725 8.9933,-9.8023 12.8861,-15.3601 l 104.6653,-149.4791 1749.0945,763.3304 c 0.1231,0.053 0.2403,0.076 0.3635,0.129 2.6733,1.1491 5.4053,2.0871 8.1783,2.8434 0.5511,0.1524 1.1139,0.2696 1.665,0.4103 0.9439,0.2287 1.876,0.5042 2.8199,0.686 1.5419,0.299 3.0955,0.4924 4.6608,0.6742 0.3459,0.041 0.6801,0.1172 1.0259,0.1465 2.6851,0.2697 5.3995,0.3108 8.1315,0.2287 0.6507,-0.018 1.2898,-0.059 1.9405,-0.1 1.9757,-0.1231 3.9514,-0.3517 5.933,-0.6683 0.7094,-0.1114 1.4246,-0.1818 2.1223,-0.3166 0.041,-0.01 0.07,-0.012 0.1055,-0.024 0.7856,-0.1524 1.5594,-0.3869 2.345,-0.5745 1.2312,-0.2931 2.4741,-0.5745 3.6876,-0.9439 0.5218,-0.1583 1.0436,-0.3752 1.5653,-0.5452 0.1173,-0.035 0.2345,-0.082 0.3459,-0.1231 0.5101,-0.17 1.0143,-0.3459 1.5126,-0.5276 0.8383,-0.3108 1.6826,-0.6039 2.5092,-0.9498 0.094,-0.035 0.1817,-0.064 0.2814,-0.1055 0.4925,-0.2111 0.938,-0.469 1.4246,-0.6859 1.1608,-0.5277 2.3275,-1.0377 3.459,-1.6416 0.029,-0.018 0.059,-0.035 0.088,-0.053 0.07,-0.035 0.129,-0.082 0.1993,-0.1173 0.7856,-0.4221 1.5243,-0.9028 2.2923,-1.3543 0.9322,-0.5569 1.876,-1.0904 2.7848,-1.6943 0.5979,-0.3986 1.1608,-0.8324 1.7353,-1.2428 0.4749,-0.3459 0.9497,-0.7035 1.4187,-1.067 0.1701,-0.1231 0.3342,-0.2404 0.4984,-0.3694 0.3693,-0.2872 0.7562,-0.5452 1.1256,-0.8442 1.6122,-1.3191 3.1658,-2.6968 4.6256,-4.1566 l 0.012,-0.012 0.012,-0.012 c 1.4481,-1.4481 2.8082,-2.9841 4.1156,-4.5846 0.3224,-0.3928 0.598,-0.809 0.9087,-1.2018 0.1055,-0.1407 0.2111,-0.2814 0.3225,-0.428 0.3341,-0.4397 0.6742,-0.8735 0.9966,-1.3132 0.4221,-0.5863 0.8618,-1.1667 1.2663,-1.7705 0.5452,-0.8149 1.0318,-1.6533 1.5302,-2.4799 0.5042,-0.8325 1.0201,-1.6533 1.4891,-2.5092 0.012,-0.024 0.023,-0.047 0.035,-0.07 0.059,-0.1055 0.129,-0.1993 0.1818,-0.3107 0.5042,-0.938 0.9263,-1.8995 1.3718,-2.861 0.2463,-0.5276 0.5335,-1.0259 0.7739,-1.5594 0.082,-0.1759 0.1231,-0.3576 0.2052,-0.5335 0.3752,-0.8794 0.7035,-1.7588 1.0377,-2.6441 0.1759,-0.469 0.3341,-0.9321 0.4983,-1.4128 0.2169,-0.6273 0.4573,-1.2546 0.6508,-1.8819 0.3458,-1.1198 0.6155,-2.2572 0.9028,-3.3886 0.2111,-0.8443 0.4514,-1.6826 0.6273,-2.5268 0.023,-0.1056 0.047,-0.2111 0.064,-0.3225 0.1641,-0.809 0.2521,-1.6356 0.3811,-2.4447 0.1817,-1.1666 0.3869,-2.3333 0.5041,-3.4941 0.065,-0.6273 0.07,-1.2546 0.1114,-1.8819 -0.01,-0.01 0,-0.012 0.01,-0.018 0.047,-0.6332 0.088,-1.2605 0.1114,-1.8936 0.029,-0.7446 0.082,-1.4891 0.082,-2.2395 0.01,-0.5687 -0.047,-1.1374 -0.064,-1.7061 -0.035,-1.3835 -0.064,-2.7613 -0.1935,-4.1331 -0.023,-0.258 -0.059,-0.5159 -0.088,-0.768 -0.053,-0.5452 -0.1642,-1.0905 -0.2404,-1.6357 -0.1524,-1.1725 -0.2814,-2.345 -0.5042,-3.4941 -0.17,-0.8735 -0.4045,-1.7295 -0.6038,-2.5971 -0.1349,-0.5687 -0.258,-1.1374 -0.4046,-1.7061 -0.1231,-0.4631 -0.2169,-0.9438 -0.3517,-1.407 -0.3752,-1.3132 -0.8501,-2.5971 -1.3132,-3.8928 -0.2111,-0.5745 -0.3811,-1.1549 -0.6039,-1.7177 -0.1583,-0.4045 -0.3342,-0.8149 -0.5042,-1.2194 -0.029,-0.064 -0.047,-0.1407 -0.07,-0.2111 l -715.9126,-1684.59806 151.4725,-106.06062 c 5.5636,-3.89865 10.6817,-8.20767 15.3601,-12.88604 25.2034,-25.20339 37.0986,-60.84225 31.4646,-97.03219 -6.6775,-42.89678 -36.5768,-77.5683 -78.0255,-90.48951 l -158.8418,-49.49222 c 1.2194,-1.2077 2.474,-2.39195 3.6817,-3.59965 361.6473,-361.647309 423.2458,-942.93173 119.9668,-1376.05607 -193.2437,-275.97694 -497.2907,-442.67464 -834.2095,-457.38394 z m -438.9049,3082.5704 -120.512,172.1147 -65.6144,-210.5735 c 7.2579,-9.6733 14.4279,-19.4463 21.4044,-29.401 6.9707,-9.9489 13.6834,-20.0267 20.2905,-30.1515 l 220.3231,-10.3709 -75.6044,107.9659 c -0.1,0.1466 -0.1934,0.2756 -0.2872,0.4163 z m 1570.2611,630.8353 -1424.7803,-621.7893 45.5819,-65.0926 c 17.0368,-24.3299 23.5501,-53.4026 19.2821,-81.5197 99.9401,-33.2821 194.3165,-81.0156 280.2097,-141.7933 l 21.1641,165.0796 c 5.5167,43.0609 34.4722,78.5239 75.5574,92.5473 41.0911,14.0175 85.6822,3.6641 116.3788,-27.0326 l 93.4971,-93.497 z m -817.0144,-905.071 -0.059,0.059 c -0.023,0.024 -0.035,0.035 -0.059,0.059 l -121.0045,121.0045 -28.035,-218.7343 c 8.8467,-8.2722 17.5761,-16.685 26.159,-25.2679 8.5946,-8.5946 17.025,-17.3182 25.2855,-26.1648 l 218.7166,28.0409 z m 910.9336,823.1116 -779.0833,-779.0833 93.5029,-93.5029 c 30.6967,-30.6967 41.05,-75.2877 27.0325,-116.3788 -14.0234,-41.0853 -49.4863,-70.0407 -92.5473,-75.5574 l -165.1499,-21.1758 c 54.2468,-76.7945 97.765,-159.87356 129.9742,-246.87476 7.0117,6.6951 14.938,12.6046 23.7495,17.453 38.0249,20.9412 83.7416,18.4906 119.3043,-6.4137 l 62.8883,-44.0341 z M -2354.9434,714.42646 c -0.1348,0.0879 -0.2697,0.1876 -0.3986,0.28141 l -106.8345,74.80114 10.3768,-220.35236 c 10.1775,-6.62476 20.2729,-13.34332 30.1456,-20.26121 9.9664,-6.97651 19.7336,-14.14063 29.3834,-21.39856 l 210.5794,65.60857 z"
                     inkscape:connector-curvature="0"
                     inkscape:export-filename="C:\Users\jason\OneDrive\2019-2020\mcamc\penguin.png"
                     inkscape:export-xdpi="500"
                     inkscape:export-ydpi="500"
                     sodipodi:nodetypes="ccccccccccccscccccccccssccccscccscccsccccccccccccccccccccccccccccccccccccccccccccccccccccccscsccccccccccccccccccccccccccccccccccccccccccscccccccccccccccccccccccsccscccccscccccccccccccccc" />
                  <path
                     sodipodi:nodetypes="cccccccccccccc"
                     style="fill:#ffffff;fill-opacity:1;stroke:#000000;stroke-width:149.26696597;stroke-linecap:round;stroke-linejoin:round;stroke-miterlimit:4;stroke-dasharray:none;stroke-opacity:1;paint-order:stroke fill markers"
                     d="m -3358.0549,1790.3167 1752.9478,764.7336 c 0,0 18.6313,6.1338 33.0928,2.6061 14.4617,-3.5279 24.3689,-8.6583 34.0298,-19.8796 9.661,-11.2217 15.575,-17.1439 15.8671,-36.7597 -0.2692,-21.417 0.565,-5.7141 -4.7381,-28.6394 -9.5662,-22.401 -728.3619,-1703.74629 -728.3619,-1703.74629 l -100.0955,70.93333 588.689,1386.66096 -794.2087,-792.6136 -82.9585,81.5625 783.2481,793.0104 -1449.6255,-623.427 -67.828,94.9038"
                     id="path1087"
                     inkscape:connector-curvature="0"
                     inkscape:export-filename="C:\Users\jason\OneDrive\2019-2020\mcamc\penguin.png"
                     inkscape:export-xdpi="500"
                     inkscape:export-ydpi="500" />
                </g>
              </g>
            </g>
          </g>
        </g>
      </g>
    </g>
  </g>
</svg>
